<svg xmlns="http://www.w3.org/2000/svg" width="22.958" height="22.958" viewBox="0 0 22.958 22.958">
  <path id="Icon_awesome-arrow-alt-circle-left" data-name="Icon awesome-arrow-alt-circle-left" d="M12.041,23.52A11.479,11.479,0,1,0,.563,12.041,11.477,11.477,0,0,0,12.041,23.52ZM6.672,10h5.369V6.723a.556.556,0,0,1,.949-.393l5.29,5.318a.55.55,0,0,1,0,.782l-5.29,5.318a.555.555,0,0,1-.949-.393V14.078H6.672a.557.557,0,0,1-.555-.555V10.56A.557.557,0,0,1,6.672,10Z" transform="translate(-0.563 -0.563)" fill="#004abc"/>
</svg>
